/* XPM */
static char *_0420c99612f471fd74b3bbafcea3212SOi2o2pCeqhzFgPq[] = {
/* columns rows colors chars-per-pixel */
"64 64 109 2 ",
"   c #2B2A31",
".  c #322E35",
"X  c #343037",
"o  c #363239",
"O  c #3A343A",
"+  c #3A383F",
"@  c #42363E",
"#  c #42383E",
"$  c #3D3C42",
"%  c #473740",
"&  c #4B3742",
"*  c #453B41",
"=  c #4B3C43",
"-  c #523746",
";  c #543947",
":  c #563A48",
">  c #5B3C4A",
",  c #623F4E",
"<  c #693F51",
"1  c #424146",
"2  c #44434A",
"3  c #48474E",
"4  c #49484E",
"5  c #514046",
"6  c #564048",
"7  c #5D414C",
"8  c #4E4D53",
"9  c #504F55",
"0  c #525157",
"q  c #55545A",
"w  c #58575D",
"e  c #59595E",
"r  c #63414E",
"t  c #664250",
"y  c #6B4353",
"u  c #724356",
"i  c #764459",
"p  c #7A455A",
"a  c #744858",
"s  c #7E485D",
"d  c #5C5C61",
"f  c #616166",
"g  c #65656A",
"h  c #6A676B",
"j  c #69696D",
"k  c #6D6C71",
"l  c #706F73",
"z  c #727176",
"x  c #757479",
"c  c #78777C",
"v  c #7A7A7E",
"b  c #81475E",
"n  c #82495E",
"m  c #854A60",
"M  c #7D7D81",
"N  c #807F84",
"B  c #838286",
"V  c #86868A",
"C  c #8A898D",
"Z  c #8E8D91",
"A  c #908F93",
"S  c #929195",
"D  c #959599",
"F  c #98979B",
"G  c #9A9A9D",
"H  c #9E9EA1",
"J  c #A3A2A6",
"K  c #A6A6A9",
"L  c #ABABAD",
"P  c #AEAEB1",
"I  c #B3B3B5",
"U  c #B6B5B8",
"Y  c #B7B6B9",
"T  c #B9B8BB",
"R  c #BBBABD",
"E  c #BDBCBF",
"W  c #BFBFC1",
"Q  c #C0BFC2",
"!  c #C2C2C4",
"~  c #C4C3C5",
"^  c #C5C4C6",
"/  c #C6C6C8",
"(  c #C9C9CB",
")  c #CBCBCD",
"_  c #CFCFD1",
"`  c #D0D0D1",
"'  c #D2D2D4",
"]  c #D6D6D7",
"[  c #D7D7D8",
"{  c #D8D8D9",
"}  c #DBDBDC",
"|  c #DCDCDD",
" . c #E1E1E2",
".. c #E3E3E4",
"X. c #E5E5E6",
"o. c #E7E7E8",
"O. c #EAEAEB",
"+. c #EBEBEC",
"@. c #ECECED",
"#. c #EFEFF0",
"$. c #F0EFF0",
"%. c gray94",
"&. c #F4F3F4",
"*. c #F6F6F7",
"=. c #F7F7F8",
"-. c #FBFBFB",
";. c #FBFBFC",
":. c gray99",
">. c white",
/* pixels */
"                                                                .                                                               ",
"X                                                                                                                   . X         ",
"  X o   X                         +           . X                                       .     o     X   X                     X ",
"                                              X $                                 X                         o                   ",
"          X               X           X                             +                                 o                         ",
"                                  .                                           X                       .                   .     ",
"                          1                                 1   + X         * + .             .                                 ",
"          X     .   X     +               o   .     $                             X               O                 X           ",
"    X               X                     .                                                                   o                 ",
"                          *                       1 .                                 .                                         ",
"                                      o .                     o                                       X   .             .       ",
"                                                              +               X                                 o               ",
"                    .                                   1 +                                 .                                   ",
"                  .                     $               X .                 +               o           X             X         ",
"                                o                                           .                 X           O                     ",
"        o                     + h             O                                 X                                   o           ",
"      $ l 3         + 1 X     o 2 1 1 $     $ 1 1 1 1 $ 1 $     1 $ O 2 1 1 $     + 1 1 1 +           1 $     + 1 $     $ 1 X   ",
"    L >.>.>._ X   O X.>.K     M >.>.;.>.@.k | >.>.>.-.F >.o.o 8 >.^ S >.>.>.>.X.d I >.>.>.>.{ w     Z >.&.1   X ! -.k l >.W .   ",
"o O >.-.G Y S $   J -.P >.d   M >.G X x >.E   * >.` o   >...  4 >.^ S >.B o C >.K I >.d   B >.W   4 -.Y %.W       E -.-.T       ",
"    v Y E %.>.e d >.| F >.| . M >.>.>.>.>.j   $ >._     -.@.  e >.W S >.>.>.>.*.w Y >.d   f >./   ( >.J ` >.z     X *.%..   1 X ",
"    [ >.' -.#.1 } #.P P R >.D M >.G * Z >.S   $ >._     L >.} O.>.z S >.B $ J >.v Y >.] _ *.-.z M >.^ P Y X.+.$     *.#.        ",
"    X x C v $ * v w       z z 3 x 8   $ x d   X x g       j V B 0   8 x 3   $ x 0 d c x x g $   j x   X . 8 x 4     z z         ",
"                                                                      o                         o                 X             ",
"                        X                                               .                                                       ",
"              O w 0     $ 4 4 $ .     $ e 8   X     8 d 3   .     o 0 e 1       O w 0 X       8 d 8   .   2 2 2 2 $             ",
"            M -.>.>.@.d J >.>.T     H >.>.>. .4 9 X.>.>.>._ +   g %.>.>.>.Y   V -.>.>.@.e $ { >.>.>.| 8 h >.>.>.>.)   X X       ",
"          X =.>.g C >.{ O D >.T   8 >.%.w K >.Y f Z N d %.>.M   z Z x k >.>.g -.>.d A >.` q Z V w  .>.G H >.J D M 2             ",
"          2 >.-.  9 >.%.  V >.T   j >.{   z >._ $ P O.>.>.| 3   w R %.>.>.) w >.*.o w >.O.o J  .>.>.o.e ( >.) I >.| X           ",
"            +.>.D I >./   V >.T o 2 -.-.B ( >.K P >.$.Y S x * O ` >.X.I C x O %.>.S Y >.W S >.*.^ D x 3 V G w + *.>.8           ",
"            e ' -.*.~ 2   M O.L K g z | >.%.I O K O.O.O.O.O.M W / O.O.O.O.O.$ f ] -.*.Q * Z O.O.O.O.O.x f ] -.-.X.S             ",
"                                                                                            +               .                   ",
": , , : : : , > : : : , > : : > , > : : > , : : : : , : : : > , : : : : , : : : > , : : : > , : : : , , : : : , > : : : < > : : ",
"t m t > > r b r > , r b r > > r b r > > r b r > > r s r , > r s r > > r b r > > r b r > > r n t > > t m t > > t m y > > y m y , ",
"b y > > > p y > > > u i > > > t p > > > r s > > > > s r > > > s r > > > p y > > > u u > > > y p > > > t b r > > t n r > > r n y ",
"7 * * * 7 y = * * = u = * # * y 5 * * * = y = * * = y = * * * y 5 * * * 5 y = * # = u = * * = t 7 * * * 6 y = * * = a 5 * * = y ",
"> : : > s > : : : u y : : : > p > : : : y y : : : > p > : : : t u : : : > p > : : : t i > > : > s > : : > y p > : : > s t : : > ",
": : > i t > : : > s > > : : r i : : : : p r : : : > p > : : : 7 p > : : : u t : : : > p 7 : : > , p > : : > y u > : : > p t > : ",
": : y p > : : : y y : : : : p r : : : > p > : : : > p > : : : > p > : : : r p : : : : y u : : : > i y : : : > p y : : : > b , : ",
"O # y # O O O # t @ O O O # t # O O O @ t # O O O # t # O O O O t # O O O # t # O O O O t * O O O # y * O O O # y = O O O # y ; ",
"> p r : : : : u y : : : : t u : : : : > p > : : : > p : : : : > i > : : : : y y : : : : t i : : : : , s > : : : > s > : : : > p ",
": : O O O O # t O O O O O r # O O O O # > O O O O O r O O O O O > * O O O O # r O O O O O t # O O O O : : O O O O * y @ O O O O ",
"i : ; ; ; : u , : ; ; ; > i : : : ; ; y t ; ; ; ; : i > ; ; : ; > u : ; ; ; : i > : ; ; : , i : ; ; ; : i , ; ; ; : , p > ; ; ; ",
"# O o O o @ t O o O o o = > O o O o O , # o o o o O 7 O O o o o # r O O X o O : = O O o o O r # O O o o # t O O O o O ; > O o o ",
"; - - - : u , - - - - : i > - - - ; : i : ; - - - : i : - - - - : i : - - - - > i : - ; ; ; > i : ; - ; ; , u : ; - - : y u : - ",
". X X X O , O X X X X O > O X X X X O > O X X X . o > O X . X X O > O X X X X O , O X X X X O , O X X X X O > * X X X . O > = X ",
": ; : : i , : : : : : y y : : : : : > p : : : : : : i > : : : : : i > : : : : : y y : : : : : , p : : : : : > p > : : : : > p t ",
"    . O > .         . : O   .     . O : .         . > X .       . ; @ .   .     o > . .     . . > O . .     . @ : .         o , ",
": : : i r : : : : : > p > : : : : : u t : : : : : : p > : : : : : r i : : : : : > p > : : : : : > p : : : : : : i y : : : : : > ",
". . O > X . . . . . = = . . . . . . > O . . . . . X > X . . . . . O > X . . . . . = = . . . . . . > @ . . . . . o , O . . . . . ",
". X > @ . . . . . X > O . . . . . X > O . . . . . o > O . . . . . O > X . . . . . O > o . . . . . O > X . . . . X # > o . . . . ",
": , i : : : : : : > p : : : : : : > p : : : : : : > p : : : : : : : p > : : : : : : i > : : : : : : i , : : : : : : u y : : : : ",
". : o             & %             X :             . : .             : O             @ &             X : .           . > o       ",
"@ > X . . . . . X > O . . . . . . @ : . . . . . . o > O . . . . . . ; % . . . . . . O > o . . . . . X > @ . . . . . . @ > o . . ",
"p > : : : : ; : > i : ; ; : : : : u , : : : : ; ; : i > ; ; : : : : > u : : : : : : : p > : : ; : : : > p : : : ; : : : y y : : ",
":               & @               : X             . : .             X :               O ;               ; @             . > O   ",
"X               : X             . : .             . : .             . : .             . : .             . : .             O > . ",
": : : : : : : > i : : : : : : : > p : : : : : : : > p : : : : : : : : p > : : : : : : : i > : : : : : : : u , : : : : : : : y y ",
". . . . . X X : * X . . . . . . O > X X X . X . . O > O . . X . X X X > O . X . . X . . @ > X X X . . . . O , O . X . . X . o > ",
"              : .               O &                 :                 @ @               . :                 & @               . ",
"            o :                 ; O               . > .               o :                 : O               X > X               ",
"; : : : : : u t : : : : : : ; : i > : : : : ; : : > i : : : : : : : : > i : : : : : : : : > u : : : : ; : : : y t : : : : : : : ",
". . . . . o > O . . . . . . . X > o . . . . . . . o > o . . . . . . . X > o . . . . . . . o > o . . . . . . . o , O . . . . . . ",
"          X :                 . :                   :                   : .                 ; O                 @ &             ",
"          ; O                 X ;                   :                   ; o                 X :                 . : .           "
};
