/* XPM */
static char *_0b629f936f04a1c81309c63add0e857jy3oH7IzhO1oM0OK[] = {
/* columns rows colors chars-per-pixel */
"64 64 110 2 ",
"   c #29282F",
".  c #2B2A31",
"X  c #322E35",
"o  c #343037",
"O  c #363239",
"+  c #3A343A",
"@  c #3A383F",
"#  c #42363E",
"$  c #42383E",
"%  c #3D3C42",
"&  c #473740",
"*  c #4B3742",
"=  c #453A41",
"-  c #4B3C43",
";  c #523746",
":  c #543947",
">  c #563A48",
",  c #5B3D4B",
"<  c #613F4E",
"1  c #653F50",
"2  c #434146",
"3  c #46454B",
"4  c #49484F",
"5  c #514046",
"6  c #564048",
"7  c #5D414C",
"8  c #4D4C52",
"9  c #514F54",
"0  c #525056",
"q  c #56555B",
"w  c #58575D",
"e  c #5B5A5F",
"r  c #63414E",
"t  c #664250",
"y  c #6B4353",
"u  c #664956",
"i  c #6A4D5B",
"p  c #724356",
"a  c #764459",
"s  c #7A455A",
"d  c #744858",
"f  c #7E485D",
"g  c #5D5D62",
"h  c #615F65",
"j  c #705260",
"k  c #7A5565",
"l  c #765866",
"z  c #785866",
"x  c #7A5D6A",
"c  c #626166",
"v  c #646368",
"b  c #69676A",
"n  c #6A6A6F",
"m  c #7E626F",
"M  c #6E6D72",
"N  c #7F6370",
"B  c #727176",
"V  c #767579",
"C  c #78777C",
"Z  c #81475E",
"A  c #82495E",
"S  c #854A60",
"D  c #826471",
"F  c #8A6675",
"G  c #7D7D81",
"H  c #828186",
"J  c #868589",
"K  c #88878B",
"L  c #8B8A8E",
"P  c #8E8D91",
"I  c #908F93",
"U  c #939296",
"Y  c #969599",
"T  c #9A9A9D",
"R  c #9E9DA1",
"E  c #A1A1A4",
"W  c #A7A7AA",
"Q  c #A8A7AA",
"!  c #A9A9AC",
"~  c #AFAFB1",
"^  c #B4B4B6",
"/  c #B7B6B9",
"(  c #B8B7BA",
")  c #BABABC",
"_  c #BFBEC0",
"`  c #C0BFC1",
"'  c #C1C1C3",
"]  c #C3C3C5",
"[  c #C6C5C7",
"{  c #C8C7C9",
"}  c #C8C8CA",
"|  c #CDCDCE",
" . c #CFCFD1",
".. c #D0D0D1",
"X. c #D6D6D7",
"o. c #D6D6D8",
"O. c #D9D9DA",
"+. c #DBDBDC",
"@. c #DCDBDD",
"#. c #DEDEDF",
"$. c #DFDFE0",
"%. c #E1E0E1",
"&. c #E5E4E5",
"*. c #E8E8E9",
"=. c #EDEDEE",
"-. c #F1F1F2",
";. c #F4F4F4",
":. c #F7F7F8",
">. c gray98",
",. c white",
/* pixels */
". . . . . . . . . . . . . . . . . . . . . . . . . . . . . . . . X . . . . . . . . . . . . . . . . . . . . . . . . . . . . . . . ",
"o . . . . . . . . . . . . . . . . . . . . . . . . . . . . . . . . . . . . . . . . . . . . . . . . . . . . . . . . . X o . . . . ",
". o O . o . . . . . . . . . . . . @ . . . . . X o . . . . . . . . . . . . . . . . . . . X . . O . . o . o . . . . . . . . . . o ",
". . . . . . . . . . . . . . . . . . . . . . . o % . . . . . . . . . . . . . . . . o . . . . . . . . . . . . O . . . . . . . . . ",
". . . . . o . . . . . . . o . . . . . o . . . . . . . . . . . . . . @ . . . . . . . . . . . . . . . . O . . . . . . . . . . . . ",
". . . . . . . . . . . . . . . . . X . . . . . . . . . . . . . . . . . . . . . o . . . . . . . . . . . X . . . . . . . . . X . . ",
". . . . . . . . . . . . . 2 . . . . . . . . . . . . . . . . 2 . @ o . . . . = @ X . . . . . . X . . . . . . . . . . . . . . . . ",
". . . . . o . . X . o . . @ . . . . . . . O . X . . % . . . . . . . . . . . . . . o . . . . . . . + . . . . . . . . o . . . . . ",
". . o . . . . . . . o . . . . . . . . . . X . . . . . . . . . . . . . . . . . . . . . . . . . . . . . . . . . O . . . . . . . . ",
". . . . . . . . . . . . . = . . . . . . . . . . . 2 X . . . . . . . . . . . . . . . . X . . . . . . . . . . . . . . . . . . . . ",
". . . . . . . . . . . . . . . . . . . O X . . . . . . . . . . O . . . . . . . . . . . . . . . . . . . o . X . . . . . . X . . . ",
". . . . . . . . . . . . . . . . . . . . . . . . . . . . . . . @ . . . . . . . o . . . . . . . . . . . . . . . . O . . . . . . . ",
". . . . . . . . . . X . . . . . . . . . . . . . . . . . 2 @ . . . . . . . . . . . . . . . . X . . . . . . . . . . . . . . . . . ",
". . . . . . . . . X . . . . . . . . . . % . . . . . . . o X . . . . . . . . @ . . . . . . . O . . . . . o . . . . . . o . . . . ",
". . . . . . . . . . . . . . . . O . . . . . . . . . . . . . . . . . . . . . X . . . . . . . . o . . . . . + . . . . . . . . . . ",
". . . . O . . . . . . . . . . @ b . . . . . . + . . . . . . . . . . . . . . . . o . . . . . . . . . . . . . . . . . O . . . . . ",
"  . . . 3 . . . . . . . . . . . . . . X . . . . . . . . % % X . . . X . . . X o . . . . X o . . . . . . . . . o . . . . . . . . ",
". . . . . . . . . . . . . . . . . . ( ,.B . 3 ,.&.. H =.,.,.;.U . X.,.b . . . I ,.) . T ,.( o . . . . . . . . . . . . . . . . . ",
"O . . . . . . . . . . . . . . . . X ( ,.G % q ,.&.8 ,.-.v g *.,.g o.,.q . . . . L ,.#.,.~ . . . . . . . . O . . . . . . . . . . ",
". . . . . . . . . . . . . . . . . . ) ,.*.@.%.,.&.n ,.[ . . ^ ,.C o.,.q . . o . . T ,.[ . . . . . . . . . . o . . . . . . . 2 o ",
". . . . . . . . . . . . . . . . . . ( ,.B . 3 ,.&.% ;.,.T Y :.>.4 o.,.T H K M . . H ,.! . . . . . . . . o . . o . . . . . . . . ",
". . . . . . . . X . . . . . . . . . Y | v + 2 | ( . q ( #.$._ g . ^ | | |  .! . . M | L . . . . . . . o X .   . . . . . . . . . ",
". . . . . . . . . . . . . . . . . . . . . . . . . . . . . . . . . . . O . . . . . . . . . . . . O . . . . . . . . o . . . . . . ",
". . . . . . . . . . . . o . . . . . . . . . . . . . . . . . . . . . . . X . . . . . . . . . . . . . . . . . . . . . . . . . . . ",
". . . . . . . . . . . . . . . . X . . . . . . o . . . . . . X . . . . . . . . . . . . . . . . . . . . X . . . . . . . . . . . . ",
". . . . . . . . . . . . . . . . . . . X . . . . . % . . . . . . . . . . o . . . . . % 9 . . . . . . . O . . . . . . . o o . . . ",
". T W % . C T . . Y Q % . . J Q M . O . ! ! C . . R ! + U ! ! W T B X 2 ) ! ! ! ! q V ! ! ! E J % 4 ! ! ~ ! ! 8 G ! ! Q E H + . ",
". Y ,.J o =.,.g 8 ,. .. . g ,.>.-.% . . ,.,.,.M . =.,.% @.,./ ! %.,.] 8 ,.-.W Q ! h W ,.| W ' ,.X.g ,.*.W ! W 8 / ,.[ Q } ,.[ . ",
". @ ;.+.G -.{ ^ E ,.b . o #.=.c ,.( O . ,.,.Q ;.9 =.,.% #.,.8 . % ,.,.0 ,.;.^ ^ T . W ,.^ C Y ,.&.g ,.=.^ ^ P . _ ,.W C R ,.X.. ",
". . R ,.=.! M >.-.o.. . T ,.=. .;.,.n . ,.,.o ' &.;.,.% #.,.8 . M ,.;.8 ,.*.c v w . W ,.*.O.;.,.J g ,.O.c c 0 . / ,.&.O.>.,.B . ",
". . 2 >.,.e o =.,.B . 0 >.#.J J K ;.*.% ,.,.. @ #.,.,.= #.,.,.,.,.-.G 8 ,.,.,.,.,.! Q ,.J . b ,...h ,.,.,.,.,.T ( ,.V . M ,.` . ",
", < < l m , < x N , , k D i , , < l m u D F , > u D F , x m D F l , , r F D N m D k j m i , 1 m x t F F N N N k z D u , y D x > ",
"t S t , , r Z r , < r Z r , , r Z r , , r Z r , , r f r , , r f r , , r Z r , , r Z r , , r A t , , t S t , , t S y , , y S y < ",
"Z y , , , s y , , , p a , , , t s , , , r f , , , , f r , , , f r , , , s y , , , p p , , , y s , , , t Z r , , t A r , , r A y ",
"7 = = = 7 y = = = = y - = $ = y 5 = = = - y = = = = y - = = = y 5 = = = 5 y - = $ = p - = = = t 7 = = = 6 y = = = - d 5 = = = y ",
", > > , f , > > , p y , > > , s , > > > y y > > , , s , > , > t p , , , , s , > > > t a , , , , f , , > , y s , > , , f t , > , ",
"> > , a t , : > , f , , > , r a > > > > s r > > > , s , > > > 7 a , > > > p t > > > , s 7 > > , < s , > > , y p , > > , s t , > ",
", , y s , , , , y y , , , , s r , , > , s , , , > , s , , , , , s , , , , r s , > , , y p , > , , a y , , , , s t , , , , Z < , ",
"+ $ y $ + + + $ t # + + + $ t $ + + + # t $ + + + $ t $ + + + + t $ + + + $ t $ + + + + t = + + + $ y = + + + $ y = + + + $ y : ",
", s r > > > > p y > > > > t p > > > > , s , > > > , s , > > > , a , > > > > y y > > > > t a , > > > < f , > > > , f , > > > , a ",
"> > + + + + $ t + + + + + r $ + + + + $ , + + + + + r + + + + + , = + + + + $ r + + + + + t $ + + + + > > + + + + = y # + + + + ",
"a > : : : > p < > : : : , a > : : : : y t : : : : > a , : : : : , p : : : : > a , : : : > < a > : : : > a < : : : : < s , : : : ",
"$ + O + O # t + O O O O - , + O + O + < $ O O O O + 7 + + O O O $ r + + o O + > - O + O O + r $ + + O O $ t + + + O + : , + O O ",
": ; ; ; : p < ; ; ; ; : a , ; ; ; : : a > : ; ; ; : a > ; ; ; ; , a > ; ; ; ; , a : ; : : : , a : : ; : : < p : : ; ; : y p : ; ",
"X o o o + < + o o o o + , + o o o o + , + o o o X O , + o X o o + , + o o o o + < + o o o o + < + o o o o + , = o o o X + , * o ",
": : : , a < : : > : > y y > : : > : , s > : : : : , a , > > > : > a , : > : > : y y > : : > > < s , : : > > , s , > : > > , s t ",
". . X + , X . . . . X , + . X . . X + > X X . . . X , o X . . . X : # X . X . . O , X X . . X X , + X X . . X # > X . . . . O < ",
": > > a r > > > : > , s , : : > > > p t > : > > : , s , > > > > > r a > : : : > , s , : : > > > , s , > > > > , a y > > > > > , ",
"X X + , o X X X X X - * X X X X X X , + X X X X X o , o X X X X X + , o X X X X X - - X X X X X X , # X X X X X O < + X X X X X ",
"X o , # X X X X X o , + X X X X X o , + X X X X X O , + X X X X X + , o X X X X X + , O X X X X X + , o X X X X o $ , O X X X X ",
"> < a > > > > > > , s , > > > : > , s , > > > : : , s , > > > > > , s , > : > : : , s , > > > > > , a < > : > > : , p y > > > : ",
"X , O . . . . . . * & . . . . . . o , . . . . . . X , X . . . . . . > + . . . . . . # * . . . . . . o , X . . . . . X , O . . . ",
"# , o X X X X X o , + X X X X X X # > X X X X X X O , + X X X X X X : & X X X X X X + , + X X X X X o , # X X X X X X # , O X X ",
"s , : : : : : : , a > : : : : : > p < : : : : : : , a , : : > : : : , p : : : : : : > a , > : : : : > , s , : : : : : > y y > : ",
"> X . . . . . . * # . . . . . . . , o . . . . . . X , X . . . . . . o > . . . . . . . + : . . . . . . . : # . . . . . . X , + . ",
"o . . . . . . . , o . . . . . . X , X . . . . . . X > X . . . . . . X , X . . . . . . X , X . . . . . . X , X . . . . . . + , X ",
", > : : : > > , a , > > > : : : , s , : : : > : > , s , > > : : > > , s , : > > > > : > a , > : > : : > > p < > > : : : : , y y ",
"X X X X X o o > = o X X X X X X + , o o o X o X X + , + X X o X o o o , + X o X X o X X # , o o o X X X X + < + X o X X o X O , ",
". . . . . . . > X . . . . . . . + * . . . . . . . . > . . . . . . . . # # . . . . . . . X > . . . . . . . . * # . . . . . . . X ",
". . . . . . O , . . . . . . . . : + . . . . . . . X , X . . . . . . . O > . . . . . . . . > + . . . . . . . o , o . . . . . . . ",
": : : : : > p t > : : > : > : > a , : : : > : : : , a > : > : : > : : , a > : : : > : : : , p > > > : : > > > y t > : : : : > : ",
"X X X X X O , + X X X X X X X o , O X X X X X X X O , O X X X X X X X o , O X X X X X X X O , O X X X X X X X O < + X X X X X X ",
". . . . . o : . . . . . . . . X > . . . . . . . . . > . . . . . . . . . : X . . . . . . . . : + . . . . . . . . # * . . . . . . ",
". . . . . : + . . . . . . . . o : . . . . . . . . . > . . . . . . . . . : O . . . . . . . . o : . . . . . . . . X , X . . . . . "
};
