/* XPM */
static char *a9026d6db34a4f9ab2db4ba85c197ea1XuptJ5DqF71kvI8d[] = {
/* columns rows colors chars-per-pixel */
"64 64 150 2 ",
"   c #29282F",
".  c #2B2A31",
"X  c #322E35",
"o  c #333037",
"O  c #363339",
"+  c #3A343A",
"@  c #3B383F",
"#  c #42363E",
"$  c #42383E",
"%  c #3D3B41",
"&  c #473740",
"*  c #4B3742",
"=  c #453B42",
"-  c #4B3D43",
";  c #523746",
":  c #543947",
">  c #563A48",
",  c #5B3C4A",
"<  c #623F4E",
"1  c #693F51",
"2  c #434146",
"3  c #484146",
"4  c #44434A",
"5  c #4A464C",
"6  c #4B494E",
"7  c #514046",
"8  c #564048",
"9  c #5D414C",
"0  c #4C4C52",
"q  c #5F4753",
"w  c #524E54",
"e  c #555359",
"r  c #58555B",
"t  c #5A585E",
"y  c #63414E",
"u  c #664251",
"i  c #6B4353",
"p  c #654957",
"a  c #694957",
"s  c #654B59",
"d  c #6C4E5B",
"f  c #724356",
"g  c #764459",
"h  c #7A455A",
"j  c #744858",
"k  c #7E485D",
"l  c #6A515D",
"z  c #5D5C62",
"x  c #6F5361",
"c  c #625F64",
"v  c #715563",
"b  c #755D6A",
"n  c #626166",
"m  c #66656A",
"M  c #69666A",
"N  c #69696E",
"B  c #7C626F",
"V  c #6E6D72",
"C  c #776670",
"Z  c #706F74",
"A  c #7E6873",
"S  c #737377",
"D  c #767579",
"F  c #79767B",
"G  c #7A7A7E",
"H  c #81475E",
"J  c #82495E",
"K  c #854A60",
"L  c #85566A",
"P  c #846371",
"I  c #836A77",
"U  c #806F79",
"Y  c #86757D",
"T  c #7D7C81",
"R  c #807F83",
"E  c #8F7D86",
"W  c #828185",
"Q  c #86868A",
"!  c #8A878B",
"~  c #8B8A8E",
"^  c #95858D",
"/  c #92898E",
"(  c #8E8D91",
")  c #928E92",
"_  c #9F8D95",
"`  c #929195",
"'  c #96969A",
"]  c #99969A",
"[  c #99999C",
"{  c #A38692",
"}  c #A08D95",
"|  c #A1929A",
" . c #AA909B",
".. c #9E9DA1",
"X. c #A19FA2",
"o. c #AC9DA4",
"O. c #B993A3",
"+. c #A3A2A5",
"@. c #A6A5A8",
"#. c #A9A7AA",
"$. c #ABABAE",
"%. c #B2A4AB",
"&. c #B9A4AE",
"*. c #AFAEB1",
"=. c #B0AFB1",
"-. c #BAADB3",
";. c #B3B3B6",
":. c #B5B4B7",
">. c #BBB3B7",
",. c #B7B6B8",
"<. c #BBBBBD",
"1. c #BCBBBD",
"2. c #BFBFC1",
"3. c #CCBFC5",
"4. c #C1C1C3",
"5. c #C3C3C5",
"6. c #C5C5C7",
"7. c #CCC2C6",
"8. c #C7C7C9",
"9. c #CBCACC",
"0. c #CDCDCF",
"q. c #D2C5CB",
"w. c #D2CBCE",
"e. c #CFCFD0",
"r. c #D5CDD1",
"t. c #D3D2D3",
"y. c #D5D5D6",
"u. c #DAD4D7",
"i. c #D7D7D8",
"p. c #DCD5D8",
"a. c #DCDBDD",
"s. c #DDDDDE",
"d. c #E4D5DC",
"f. c #E3DBDE",
"g. c #DFDFE0",
"h. c #E2DDE0",
"j. c #E1E1E2",
"k. c #E3E3E4",
"l. c #E5E5E6",
"z. c #EAEAEB",
"x. c #ECECED",
"c. c #F5EAEF",
"v. c #EFEFF0",
"b. c #F2EFF0",
"n. c #F1F1F1",
"m. c #F4F4F4",
"M. c #F6F6F6",
"N. c #F8F8F8",
"B. c #FDFDFD",
"V. c #FEFEFE",
/* pixels */
". . . . . . . . . . . . . . . . . . . . . . . . . . . . . . . . X . . . . . . . . . . . . . . . . . . . . . . . . . . . . . . . ",
"o . . . . . . . . . . . . . . . . . . . . . . . . . . . . . . . . . . . . . . . . . . . . . . . . . . . . . . . . . X o . . . . ",
". o O . o . . . . . . . . . . . . @ . . . . . X o . . . . . . . . . . . . . . . . . . . X . . O . . o . o . . . . . . . . . . o ",
". . . . . . . . . . . . . . . . . . . . . . . o % . . . . . . . . . . . . . . . . o . . . . . . . . . . . . O . . . . . . . . . ",
". . . . . o . . . . . . . o . . . . . o . . . . . . . . . . . . . . @ . . . . . . . . . . . . . . . . O . . . . . . . . . . . . ",
". . . . . . . . . . . . . . . . . X . . . . . . . . . . . . . . . . . . . . . o . . . . . . . . . . . X . . . . . . . . . X . . ",
". . . . . . . . . . . . . 2 . . . . . . . . . . . . . . . . 2 . @ o . . . . = @ X . . . . . . X . . . . . . . . . . . . . . . . ",
". . . . . o . . X . o . . @ . . . . . . . O . X . . % . . . . . . . . . . . . . . o . . . . . . . + . . . . . . . . o . . . . . ",
". . o . . . . . . . o . . . . . . . . . . X . . . . . . . . . . . . . . . . . . . . . . . . . . . . . . . . . O . . . . . . . . ",
". . . . . . . . . . . . . = . . . . . . . . . . . 2 X . . . . . . . . . . . . . . . . X . . . . . . . . . . . . . . . . . . . . ",
". . . . . . . . . . . . . . . . . . . O X . . . . . . . . . . O . . . . . . . . . . . . . . . . . . . o . X . . . . . . X . . . ",
". . . . . . . . . . . . . . . . . . . . . . . . . . . . . . . @ . . . . . . . o . . . . . . . . . . . . . . . . O . . . . . . . ",
". . . . . . . . . . X . . . . . . . . . . . . . . . . . 2 @ . . . . . . . . . . . . . . . . X . . . . . . . . . . . . . . . . . ",
". . . . . . . . . X . . . . . . . . . . % . . . . . . . o X . . . . . . . . @ . . . . . . . O . . . . . o . . . . . . o . . . . ",
". . . . . . . . . . . . . . . . O . . . . . . . . . . . . . . . . . . . . . X . . . . . . . . o . . . . . + . . . . . . . . . . ",
". . . . O . . . . . . . . . . @ M . . . . . . + . . . . . . . . . . . . . . . . o . . . . . . . . . . . . . . . . . O . . . . . ",
". . N :.=.. . . ..;.N . . G ;.N . . ..;.;.;.;.t ;.;.;.$.W . ] ;.;.;.;.. G <.5.+.@ G ;.2 . W ;.% $.' . o ' ;.m o . S ;.V . . . . ",
". . ( V.V.Z . S V.V.~ . 6 M.l.x.@ . V ] V.4.T n V.6.T $.V.~ a.N.G G G V V.s.@.2.T @.V.0 . =.V.4 M.y.r s.x.V . . 2 M.l.n.% . . . ",
"O . ( V.*.z.5 x.*.V.~ . 8.b.N N.*.X . r V.[ . e V.k.4.j.V.N i.V.y.y.W = 8.v.V.M.Q @.V.s.y.n.V.4 M.M.V.V.m O . . 2.M.m M.1.. . . ",
". . ( V.m 9.n.8.N V.( T V.j.s.l.V.m X z V.[ . e V.2.V 2.M.e y.N.' ' ' n t.5.:.V.@.@.V.0 . ;.V.2 M.M.G ;.N.` o D V.j.s.j.V.V 2 o ",
". . z [ 0 0 [ 0 0 [ z ~ ~ . . . ' T o 2 [ m . % [ m . 5 [ t W [ [ [ [ 4 n +.$.Q o V [ % . Z [ + ` W . . W [ M ~ ( . . . ` W . . ",
". . . . . . . . X . . . . . . . . . . X . + . . . . . . . X . . . . . . . . . . . . o . . . . . . . . o X .   . . . . . . . . . ",
". . . . . . . . . . . . . . . . . . . . . . . . . . . . . . . . . . . O . . . . . . . . . . . . O . . . . . . . . o . . . . . . ",
". . . . . . . . . . . . o . . . . . . . . . V @.@.@...Z . . . ` @.% . . ' @.@.+.~ % . . . . . . . . . . . . . . . . . . . . . . ",
". . . . . . . . . . . . . . . . X . . . . . +.V...~ l.V.= . D V.x.<.. . s.M.! ` N.0.. . . . . . . . . X . . . . . . . . . . . . ",
". . . . . . . . . . . . . . . . . . . X . . +.V.0.6.M.l.% @ z.8.Q V.V . g.N.:.2.V.1.% w . . . . . . . O . . . . . . . o o . . . ",
". . . . . . . . . . . . . . . . . . O . . . +.V...~ y.V.G $.N.x.z.M.z.% k.n.G [ V.( . o . . . . . . . . X . . . . . . . . . . . ",
". . . . . . . . . . . . . . . . . . . . . . V $.@.@.@.T = @.F . . 0 @.m ` [ . . [ ` . . . . . . . . . . . o . . . . . . . . . . ",
". . . . . . . . . . . . . . . . . . O . . . O . . . . . . . . . . . . . . . . . X . . . . . . . O . . . . . . . O . . . . . . . ",
". . . . . . . . . . . . . . + . . . . . . . X . . . . . . . . . . . . . . . . . . . . . . . . . o . . . . . . . . . . . . . . . ",
". . . . . . . . . . . . . . . . . . . . . . . . . . . . . . . . . . . . . . . . . . . . . . @ . . . . . . . . . . . . . . . . . ",
", < < , , , < , , , , < , , , , < , > > , < , > , , < , > > , < , , , , < , , > , < , , , , < , > , < < , , , < , , > , 1 , , > ",
"u K u , , y H y , < y H y , , y H y , , y H y , , y k y , , y k y , , y H y , , y H y , , y J u , , u K u , , u K i , , i K i < ",
"H i , , , h i , , , f g , , , u h , , , y k , , , , k y , , , k y , , , h i , , , f g , , , i h , , , u H y , , u J y , , y J i ",
"9 = = = 9 i = = = = f = = $ = i 7 = = = - i = = = = i - = = = i 7 = = = 7 i - = $ = f - = = = u 9 = = = 8 i = = = - j 7 = = = i ",
", > > , k , > > , f i , > > , h , > > > i i > > , , h , > , > u f , , , , h , > > > u g , , , , k , , > , i h , > , , k u , > , ",
"> > , g u , > > , k , , > , y g > > > > h y > > > , h , > > > 9 h , > > > f u > > > , h 9 > > , < h , > > , i f , > > , h u , > ",
", , i h , , , , i i , , , , h y , , > , h , , , > , h , , , , , h , , , , y h , > , , i f , > , , g i , , , , h i , , , , H < , ",
"+ $ i $ + + + $ u # + + + $ u $ + + + # u $ + + + # u $ + + + + u $ + + + $ u $ + + + + u = + + + $ i = + + + $ i = + + + $ i : ",
", h y > > > > f i > > > > u f > > > > , h , > > > , h , > > > , g , > > > > i i > > > > u g , > > > < k , > > > , k , > > > , g ",
"> > + + + + $ u + + + + + y $ + + + + $ , + + + + + y + + + + + , = + + + + $ y + + + + + u $ + + + + > > + + + + = i # + + + + ",
"g > : : : > f < > : : : , g > > > : : i u : : : : > g , : : > : , f > : : : > g , : : : > < g > : : : > g < : : : > < h , : : : ",
"$ + O + O # u + O O O O - , + O + O + < $ O O O O + 9 + + O O O $ y + r o 5 - > - O + O O + y $ + + O O $ u + + + O + : , + O O ",
": ; ; ; > f , ; ; ; ; > g , ; ; ; : > g > : ; ; ; > g > ; ; ; ; , g > 8.; ] U , g > ; : : : , g > : ; : : < f > : ; ; > i f > ; ",
"X o o X.t.r.5 o ! t.W D p.t.t.t.t.6 t.p.+ o ,.t.w 0.p.- o c 9.t.D < ! e.l.s.$.6 d t.8.o o o + >.t.t o o o G p.t.n o c t.$., - o ",
"> : > 7.V.N.p., %.V.o.} V.t.! ! ! q V.V., > h.V.b N.V.d &.V.k.C >  .V.k.) 1.V.f.v V.M.> > > > u.V.I > > > | V.V.b.x Y V.w., h u ",
". . X 2.V.` x.:...V.] / V.n.a.a.] o V.V.O . s.V.r N.V.j.V.s.@ . X 1.V.T . o N.V.e V.n.X . . X t.V.M X X . ~ V.>.d.a.D V.8.. O < ",
"> > > 7.V.E I N.x.V.o.O.V.q.I I B p z.V.^ A N.V.p N.V.z.3.V.6.s > %.V.8.b ^ V.b.l V.M.v v v p u.V.{ v v x | V.-.L c.x.V.w.> > , ",
"X X + q.V.D X T V.V.o._ V.V.V.V.V.! Y x.V.V.M.( X N.V.6 X R N.x.V - 7.V.V.V.l.m 4 V.V.V.V.V.+.t.V.V.V.V.l.~ V.#.O P M.V.8.X X X ",
"X o , - % O X X % = u $ % % % % % @ , + 0 w + X X = p + X X @ % % + , = w 5 X X X - p = % % @ @ % 3 a = @ O % @ o $ u = @ X X X ",
"> < g > > > > > > , h > > > > > > , h , > > > > > , h , > > > > > , h , > > > > > , g , > > > > > , g < > > > > > , f i > > > > ",
"X , O . . . . . . * & . . . . . . o , . . . . . . X , X . . . . . . > + . . . . . . # * . . . . . . o , X . . . . . X , O . . . ",
"# , o X X X X X o , + X X X X X X # > X X X X X X O , + X X X X X X : & X X X X X X + , O X X X X X o , # X X X X X X # , O X X ",
"h , > > > > : > , g > : : > > > > f < > > > > : : , g , : : > > > > , f > > > > > > > g , > > : > : > , h , > > : > > > i i > > ",
"> . . . . . . . * # . . . . . . . > o . . . . . . X , X . . . . . . o > . . . . . . . + : . . . . . . . : # . . . . . . X , + . ",
"o . . . . . . . , o . . . . . . X , X . . . . . . X > X . . . . . . X , X . . . . . . X , X . . . . . . X , X . . . . . . + , X ",
", > > > > > > , g , > > > > > > , h , > > > > > > , h , > > > > > > , h , > > > > > > > g , > > > > > > > f < > > > > > > , i i ",
"X X X X X o o > = o X X X X X X + , o o o X o X X + , + X X o X o o o , + X o X X o X X # , o o o X X X X + < + X o X X o X O , ",
". . . . . . . > X . . . . . . . + * . . . . . . . . > . . . . . . . . # # . . . . . . . X > . . . . . . . . * # . . . . . . . X ",
". . . . . . O , . . . . . . . . : + . . . . . . . X , X . . . . . . . O > . . . . . . . . > + . . . . . . . o , o . . . . . . . ",
": > > > > > f u > > > > > > : > g , > > > > : > > , g > > > > > > > > , g > > > > > > > > , f > > > > : > > > i u > > > > > > > ",
"X X X X X O , + X X X X X X X o , O X X X X X X X O , O X X X X X X X o , O X X X X X X X O , O X X X X X X X O < + X X X X X X ",
". . . . . o > . . . . . . . . X > . . . . . . . . . > . . . . . . . . . > X . . . . . . . . : + . . . . . . . . # * . . . . . . ",
". . . . . : + . . . . . . . . o : . . . . . . . . . > . . . . . . . . . : O . . . . . . . . o > . . . . . . . . X , X . . . . . "
};
