/* XPM */
static char *xpm_[] = {
/* columns rows colors chars-per-pixel */
"64 64 113 2 ",
"   c #29282F",
".  c #2B2A31",
"X  c #322E35",
"o  c #343037",
"O  c #363239",
"+  c #3A343A",
"@  c #3A383F",
"#  c #42363E",
"$  c #42383E",
"%  c #3C3B41",
"&  c #473740",
"*  c #4B3642",
"=  c #453B41",
"-  c #4B3C43",
";  c #523746",
":  c #543947",
">  c #563A48",
",  c #5B3C4A",
"<  c #623E4E",
"1  c #693F51",
"2  c #434146",
"3  c #44434A",
"4  c #48484E",
"5  c #514046",
"6  c #564048",
"7  c #5D414C",
"8  c #4D4C52",
"9  c #515157",
"0  c #55555A",
"q  c #59575C",
"w  c #5A585D",
"e  c #63414E",
"r  c #664250",
"t  c #6B4353",
"y  c #724356",
"u  c #764459",
"i  c #7A455A",
"p  c #744858",
"a  c #7E485D",
"s  c #5E5D62",
"d  c #605F64",
"f  c #626166",
"g  c #66666B",
"h  c #69696E",
"j  c #6E6E73",
"k  c #706E73",
"l  c #727176",
"z  c #76757A",
"x  c #78777C",
"c  c #7B7A7E",
"v  c #81475E",
"b  c #82495E",
"n  c #7D7C81",
"m  c #838285",
"M  c #858589",
"N  c #88878B",
"B  c #8A898D",
"V  c #8F8F93",
"C  c #908E92",
"Z  c #939296",
"A  c #969599",
"S  c #9B9B9E",
"D  c #9E9EA1",
"F  c #A09FA2",
"G  c #A3A3A6",
"H  c #A6A6A9",
"J  c #AAAAAD",
"K  c #AEAEB0",
"L  c #B2B2B5",
"P  c #B6B6B8",
"I  c #B8B7BA",
"U  c #BABABC",
"Y  c #BEBEC1",
"T  c #C0BFC2",
"R  c #C5C4C6",
"E  c #C7C6C8",
"W  c #C9C9CB",
"Q  c #CACACB",
"!  c #CACACC",
"~  c #CBCBCD",
"^  c #CDCDCF",
"/  c #CECED0",
"(  c #D0D0D2",
")  c #D1D1D3",
"_  c #D2D1D3",
"`  c #D4D3D5",
"'  c #D4D4D6",
"]  c #D5D5D6",
"[  c #D7D6D8",
"{  c #D8D7D9",
"}  c #D9D9DA",
"|  c #DAD9DB",
" . c #DBDBDC",
".. c #DEDEDF",
"X. c #DFDFE0",
"o. c #E0DFE1",
"O. c #E1E1E2",
"+. c #E3E3E4",
"@. c #E7E7E8",
"#. c #E9E9EA",
"$. c #ECECEC",
"%. c gray93",
"&. c #EEEEEF",
"*. c #EFEFEF",
"=. c #F0F0F1",
"-. c #F1F1F2",
";. c #F3F3F4",
":. c #F4F4F4",
">. c #F8F8F9",
",. c #F9F9F9",
"<. c #FBFBFB",
"1. c gray99",
"2. c #FEFEFE",
/* pixels */
". . . . . . . . .   . .   .   . . . . . . . .   .   . . . . . . X .   . . . . . . . . . . .   .   .   .       . . . . .   . .   ",
"o . . . . . . . . . . . . . .     . X . . . .     . . . . . . . . . . . . . . . . . . . . .     .           . . . . . % .   .   ",
"  X O   . . . . .   . . . .   . . % . . . . . X O   . . . . . . . . . .   . . . . .   . X . . %   . %   %   . . . .   .   .   % ",
". . .   . .   . . . .   . .   . . . . .   . . o % .   . . . . . . . . .   . .   . o .   . . . .             % . . . . . .       ",
". . . . . o . .   .     . %     . . . O . . .   . . . . . . . . . . @   . . .   . . . . . . . . . .   . .   . . . . . X .   . . ",
". . . X . . . .         . .     . X   . . . . . . . . . . . . . . .   . .   . . . . . . . . . . .     % . . . . . . . . . X .   ",
"  .   . . . . . .         3   . . .   . . . . .     . . . . 3 . % X .   .   3 @ o . . . .   . X . . . . .     . . . . . .   . . ",
". . . . . X . . % . % . . % . .   . .   . O . X . . % X . . . . . . . . . . .   . o . .   . . . . %   .   . . . . . X . .   . . ",
". . o . . . . .     %     . .     .   . . X   .     . . . . . . . . . . . . . . . . . . . . . . .   . . .     % . . . . . . . . ",
". .   . . .   .       .   % . .   . . . . . .   . 3 X . .   . . . . . . . . . . . . . % . . . . . . . . .     . . . . . . . . . ",
". .     . .   . . .   . . . . . . .   @ X   . .   . .     .   O   . . . . . . . . . . . . . .   . . . O . .   . . . . . . . . . ",
". . . . . .   .     .   . . . . . . . . . . .   .   .   .     @ . . . . . . . O     .   . .   .   . . . . . . . O . . . . . . . ",
".   . .   . . . . . X . . . . . .   . . . .   . . .   . 2 @ . . .     .   .       . . . . . X   .   . . . . . . . . . . . . . . ",
"  . .   .   . . . . . .   . . . . . . . % . . . .   . . O O   . . . . . .   % . . . .   . . @ . . . . . % .   . . . . . . . . . ",
".   .   . . . c ) / / ) / / 3 ^ / ^ / ) ) f . h Y ..+.~ M . 3 ) / 3 .   T / h h ^ / S . . n ' P . % D ' +. .K 9 . . . . . . . . ",
".   .   O . . h J R 1.>.J H 3 >.1.R H H H 0 j 1.>.R L >.1.H 8 1.>.8 .   =.>.n c >.1.1.N . Z 1.[ . [ >.#.K ' >.=.3 . O . . . . . ",
". . . . 3 . .   . l 1.1.. . + 1.1.U S S n . T 1.Y     8 s 0 8 1.1.K S D >.1.n n 1.=.P 1.h A 1.[ 9 >.1.9   . =.1.M . . . . .   . ",
"  . .   .   . . . z 1.1.. . . 1.1.U S S c . U 1.Y . . 8 s s 0 1.1.H S J >.<.n n 1.=.O ' :.U 1. .0 >.1.0 . o *.1.B . . .   .   . ",
"%       .     . . l 1.1.. . . 1.1.E J K K n l 1.1.R P >.1.G 8 1.1.8 .   =.1.n n 1.:.. % #.1.1.| . ' 1.*.L O.1.;.3 . . . . . . . ",
"        .   .   . s ( E . . . ~ ^ ~ ^ Q ~ Z . h Y X.o.Q M . 3 ~ ~ 3 . X R ~ g g Q E . . 9 ^ ~ J . % S ` +.| L 9 . . . . . . 3 X ",
". . .   . . . . . . . . . . . . . . O . . .     .       . . . . . . . . . X .   . . .   . . . . . . .   o . . o . . . . . . . . ",
"  .   . . . . . .   . .   . .     . . . . @ . . . . .   . . . . . . . . . . . .   . O . .   .   . . . o o .   . . . . . . .   . ",
".   . .   . . .   . . . . . . . .   .   . . .   . . . . . . . .     . @ .   . .     .   . . .   O . . . . . . . . X . . . . . . ",
"  .     .   . . . .   . O . . . . . . . . . . . . . . . . . . .   .   . X     . . . . . . .   . . .   . . . . . . . .   .   . . ",
". . . .           . .   . . . . X .   . . . . O .     . . . o . . . . . .       .   . . . .   . . . . X . . . . . . . . . . . . ",
"  . . . .   . Y ) ' ' ' ) L g ' ' ' ' ~ J w . . . s ) ' M . . . M ' [ B O . S ' S . w E ..*...J 3 . P [ ` ' ` ` m . . . X . . . ",
". . . . .   . C F O.>.O.F V x 1.>.G H Q 1.>.% . . R 1.>.:.3 . X D 1.1.1.M . P 1.I % =.1.| H ..1.@.O | 1./ G G G h . . . . . . . ",
". . . . . .   . . Y <.L . . c 1.>.s s V 1.1.4 O c 1.{ m 1.R . . G 1.| ~ :.q L 1.I M 1.>.O . @ 0 s O  .1./ G G A . . . . . . . . ",
". . . . . . . . . Y 1.L . . z 1.1.1.1.1.1.J O % *.1.T G >.1.x   S 1.) % +.#.~ 1.I z 1.>.% . % j j % [ 1.Q Z Z M % . . . . . . . ",
". . . . . . . .   Y 1.L . . m 1.>.4 4 J 1.o.X P 1.#.| | ..1.=.% S 1.) . 8 :.1.1.I + #.1.O.L @.1.X.. | 1.[ L L L D . . . . . . . ",
". X . . . . X . . Z T C . . d E R . . 3 Q E q E E 2 . o . G E M n ~ H X . h Q E Z X 3 H ) X.) D = . J ~ Q E E E H . . . X X . . ",
"- 9 < > > > < < > > < 1 , , , , < > > > , < > > > > r > > > , < > > > > 1 > , > , r > > > , r > > > < < > > > 1 , > > > < 7 , 6 ",
"r b e e e e b r , e e b e < e e b e 7 e e a e e 7 e b e , e e b t < , e b e 7 , e b e < , e b e e < e b r e 7 r b t e < r b t e ",
"b r e e 7 a y e , 7 y p , , 7 e a , , e e a e e 7 e a e , , 7 b e , < , i t , < e y p 7 , , t a 7 , e r b e , , r b e , , e b t ",
"7 $ $ $ 6 t $ $ $ 5 y - $ $ $ y 5 $ $ $ - r $ $ $ $ t - $ $ $ t 5 = $ = 5 t $ $ $ - p - $ $ $ r 7 $ $ $ 6 t $ $ $ 5 p 5 - $ 5 r ",
"7 > : 7 v , > : > y t , > > , i , > > : y t , > > 7 u e > , : e y > , > 6 i e , > > r y , , , e a e , , , t v 7 7 , , a r > > , ",
"> > , p r > : : 7 i , > > > e u > > > > u e : > > > a , > > > e i > > > , y r > > > 7 i e > > > e u 7 > > , t y > > : e a e > > ",
"> , t i , > , , t y , > > , i e , > > , u e > > > < u 7 , > > e a , > , > e i , > > , t u > , , , u t , > , , i r , > , e v e > ",
"# $ r $ + # + $ r $ + + + $ r $ + + + $ r $ + + + $ e $ + @ + # e $ + + + @ e $ + @ + $ e $ + + + $ r $ + # + $ r $ + + + $ r 5 ",
", i e : > > > y t > > > > r y > : > > e i , > > : , i , > : : > u e > > > , y t > > > > r i > > > > e i , : : > e b e > > : < u ",
": 6 # o o + # 1 # + + o + e $ + + + + $ < + + + + + e # + + + + 7 $ + + + + $ e + + + + + r $ + + O + > > + + + + $ r # + + + # ",
"u > ; ; : > u < : ; : : , u > : : : : t e ; ; ; ; > u > ; ; : ; , y : : ; ; : u , : : ; : < u > : : : : u < ; ; : > e u > : ; ; ",
"$ # + # o # < # o + o + $ , + o + + + e $ o o + o # < # + o o + # e + + o + + : - + + o o + < # o + + o $ e + + + + + : 7 + O O ",
": $ # > : u 1 $ ; : ; : i , ; ; ; ; : y > ; ; ; ; : y > ; ; : ; > u : ; ; ; ; , u : ; : : ; , u : : ; : : < u : ; ; ; ; t y : : ",
"o o o X # < o X X o o + < o o X o o + < + o o o X o < + o o X X + < + o o o X + < + X o o o + < $ o o o o + < $ o o X X o < $ o ",
": : : , u < : : : : > 1 y , : : : : , u : : : : : , u , > > > > : u , : > : > ; 1 t : > > > > < u > : : : : , i < : : ; : , i t ",
"X . X o < o X X X X X , o X X X X X + : X X X X X X , X X X X . X : $ X X X . X + , X X X . X X < + X X X X X # : X X X . X o < ",
": : : u < > : ; : : , i , : : : : : u < : : : : : > i , > : > > : e y > : : > > > u , > ; > > > < u , : : : : , u t , : > > : < ",
"X X # < + X X X X X # ; X X X X X o , # . o X X X o < o X X X X X + < X X X X X X * ; X X X X X X , # X X X X X + < + X X X X X ",
"X o , # o o X X X X , # X X X X o o < o X X X X X o , + X X X X X + , X X X X X X + , o X X X X X + < o X X X X X # , + X X X X ",
": < u : > > > > > < i : : : > > > , 1 , > > > , > , 1 < ; > > > : > i , : : > > > > u , > > > ; : , u < > : > > > , u t > > : : ",
"X , + .   X     . $ $ X . X . . . + < . . . . . . X , X . X . .   X : + X . . . . . # ; . X . .   . o , X X   . . . X , o X . . ",
"# , o X X X X X X < + X X X X X o # , o X X X X X o , + X X X X X X : $ X X X X X X + , + X X X o X o > $ o X X X X X # < + X X ",
"u < : : : : : : , u ; ; : : : : , 1 < ; > ; > ; ; , i > : : : : : : < u : > > : > > > i , : : : : : : , i > : : : : : : 1 y > ; ",
": X     X       * $ X X X . . X . , + . X       X X > X . X . X     o > X . X . . . . # : X . X X X   X : #   X   X   X X , +   ",
"o . . X   X X X , o . .   . . . X > X     X X X . X > X . . . . X X X > X . . . X . . X > X . .       X o , X     . X .   + , X ",
"> > > ; : : : < i : > > > > > ; , i , : > : > ; > , 1 , > : : : : > : i < : : > ; > > > 1 1 > > > > ; > , 1 1 > > : : : : , 1 1 ",
"X o o X o X o : $ o X X X o o X + > X o o o o X X + 1 + X o X X o X X < + X o o X X o o & , X X X o o X o + < o o o X X o o + < ",
"        .   X ; X . . . . .     + ; . .           . ; X .   . .     . # #     X . . . . X ; X .     . . . . * & .         . . X ",
". X X . . X + > X . . . . . . X ; + X . X X . . X o : X X X . X X . X X ; X X   X . . . X : + . . . X . . . o < o X X . X   X X ",
"; > ; > ; > 1 < > > ; ; > > ; > i , ; ; ; ; : : ; , 1 < : ; ; > : ; : < 1 : : : ; ; ; ; ; < 1 > , ; ; ; ; ; > 1 1 ; : : ; ; > : ",
"X X X X X + 1 + X X X + X X X + > + X X X X X X X o , + X X X X X X X o 1 + X X X X o o X O 1 O o X o o X X X + < + X X X X X X ",
"  .       o ; X     .   .     X ; X . . . .   .   X > X . . . .       . : X     .   . . . . ; +   . . .   . . . $ * . . .   .   ",
"  . .     ; + . . .     .     X ; .   . . . .   . X > . .   .   .     X : o . . . . . . . . O ; . .   . . . . . X : X   . . . . "
};
